<svg width="13" height="13" viewBox="0 0 13 13" fill="none" xmlns="http://www.w3.org/2000/svg">
<path fill-rule="evenodd" clip-rule="evenodd" d="M6.5 0C2.90875 0 0 2.98232 0 6.66441C0 9.61341 1.86063 12.1042 4.44438 12.9873C4.76938 13.0456 4.89125 12.8456 4.89125 12.6707C4.89125 12.5124 4.88313 11.9876 4.88313 11.4295C3.25 11.7377 2.8275 11.0213 2.6975 10.6464C2.62438 10.4548 2.3075 9.86333 2.03125 9.70505C1.80375 9.58009 1.47875 9.27186 2.02313 9.26353C2.535 9.2552 2.90063 9.7467 3.0225 9.94663C3.6075 10.9546 4.54188 10.6714 4.91563 10.4964C4.9725 10.0633 5.14313 9.77169 5.33 9.60508C3.88375 9.43847 2.3725 8.86366 2.3725 6.31453C2.3725 5.58977 2.62438 4.98998 3.03875 4.52347C2.97375 4.35686 2.74625 3.67376 3.10375 2.7574C3.10375 2.7574 3.64812 2.58246 4.89125 3.4405C5.41125 3.29055 5.96375 3.21558 6.51625 3.21558C7.06875 3.21558 7.62125 3.29055 8.14125 3.4405C9.38438 2.57413 9.92875 2.7574 9.92875 2.7574C10.2863 3.67376 10.0588 4.35686 9.99375 4.52347C10.4081 4.98998 10.66 5.58144 10.66 6.31453C10.66 8.872 9.14063 9.43847 7.69438 9.60508C7.93 9.81334 8.13313 10.2132 8.13313 10.838C8.13313 11.7294 8.125 12.4458 8.125 12.6707C8.125 12.8456 8.24688 13.0539 8.57188 12.9873C9.86222 12.5406 10.9835 11.6903 11.7778 10.5561C12.5722 9.42184 12.9996 8.06076 13 6.66441C13 2.98232 10.0913 0 6.5 0Z" fill="#171515"/>
</svg>
