<svg width="52" height="53" viewBox="0 0 52 53" fill="none" xmlns="http://www.w3.org/2000/svg">
<path d="M13.6375 23.7939C14.25 22.5689 14.8844 21.3876 15.5406 20.2501C16.1969 19.1126 16.9188 17.9751 17.7063 16.8376L14.0313 16.1157L8.51876 21.6282L13.6375 23.7939ZM45.2688 5.74698C42.2063 5.83448 38.9364 6.73136 35.4591 8.43761C31.9801 10.1439 28.8188 12.4189 25.975 15.2626C24.1375 17.1001 22.4969 19.0689 21.0531 21.1689C19.6094 23.2689 18.5375 25.2376 17.8375 27.0751L25.3188 34.4907C27.1563 33.7907 29.125 32.7189 31.225 31.2751C33.325 29.8314 35.2938 28.1907 37.1313 26.3532C39.975 23.5095 42.25 20.3595 43.9563 16.9032C45.6625 13.447 46.5594 10.1876 46.6469 7.12511C46.6469 6.95011 46.6145 6.77511 46.5498 6.60011C46.4833 6.42511 46.3844 6.27198 46.2531 6.14073C46.1219 6.00948 45.9688 5.91061 45.7938 5.84411C45.6188 5.77936 45.4438 5.74698 45.2688 5.74698ZM30.8313 21.497C29.825 20.4907 29.3219 19.2544 29.3219 17.7879C29.3219 16.3231 29.825 15.0876 30.8313 14.0814C31.8375 13.0751 33.0844 12.572 34.5719 12.572C36.0594 12.572 37.3063 13.0751 38.3125 14.0814C39.3188 15.0876 39.8219 16.3231 39.8219 17.7879C39.8219 19.2544 39.3188 20.4907 38.3125 21.497C37.3063 22.5032 36.0594 23.0064 34.5719 23.0064C33.0844 23.0064 31.8375 22.5032 30.8313 21.497ZM28.6 38.6907L30.7656 43.8751L36.2781 38.3626L35.5563 34.6876C34.4188 35.4751 33.2813 36.1856 32.1438 36.8191C31.0063 37.4544 29.825 38.0782 28.6 38.6907ZM51.6344 3.64698C51.9844 8.45948 51.1969 13.1512 49.2719 17.7222C47.3469 22.295 44.3063 26.6595 40.15 30.8157L41.4625 37.3126C41.6375 38.1876 41.5938 39.0407 41.3313 39.872C41.0688 40.7032 40.6313 41.4251 40.0188 42.0376L31.75 50.3064C31.0938 50.9626 30.3063 51.2137 29.3875 51.0597C28.4688 50.9075 27.8344 50.3939 27.4844 49.5189L23.4813 40.1345L12.2594 28.9126L2.87501 24.9095C2.00001 24.5595 1.47501 23.9251 1.30001 23.0064C1.12501 22.0876 1.36563 21.3001 2.02188 20.6439L10.2906 12.3751C10.9031 11.7626 11.6364 11.3251 12.4904 11.0626C13.3426 10.8001 14.2063 10.7564 15.0813 10.9314L21.5781 12.2439C25.7344 8.0876 30.0989 5.04698 34.6716 3.12198C39.2426 1.19698 43.9344 0.40948 48.7469 0.75948C49.0969 0.80323 49.4469 0.90123 49.7969 1.05348C50.1469 1.20748 50.4531 1.41573 50.7156 1.67823C50.9781 1.94073 51.1855 2.24698 51.3378 2.59698C51.4918 2.94698 51.5906 3.29698 51.6344 3.64698ZM5.30313 35.9345C6.83438 34.4032 8.70426 33.6262 10.9128 33.6035C13.123 33.5825 14.9938 34.3376 16.525 35.8689C18.0563 37.4001 18.8105 39.27 18.7878 41.4785C18.7668 43.6887 17.9906 45.5595 16.4594 47.0907C15.3656 48.1845 13.5395 49.1251 10.981 49.9126C8.42076 50.7001 4.88751 51.4001 0.381256 52.0126C0.993756 47.5064 1.69376 43.9731 2.48126 41.4129C3.26876 38.8544 4.20938 37.0282 5.30313 35.9345ZM9.04376 39.6095C8.60626 40.047 8.16876 40.8459 7.73126 42.0061C7.29376 43.1646 6.98751 44.3345 6.81251 45.5157C7.99376 45.3407 9.16451 45.0459 10.3248 44.6311C11.4833 44.2146 12.2813 43.7876 12.7188 43.3501C13.2438 42.8251 13.5281 42.1907 13.5719 41.447C13.6156 40.7032 13.375 40.0689 12.85 39.5439C12.325 39.0189 11.6906 38.7669 10.9469 38.7879C10.2031 38.8106 9.56876 39.0845 9.04376 39.6095Z" fill="#31F645"/>
</svg>
