<svg width="61" height="71" viewBox="0 0 61 71" fill="none" xmlns="http://www.w3.org/2000/svg">
<path d="M47.5839 44.0402C44.3162 44.035 41.1601 45.234 38.7134 47.4102L26.2691 39.3836C27.0415 36.8269 27.0415 34.0974 26.2691 31.5407L38.7134 23.5141C41.1356 25.6528 44.2458 26.8395 47.4704 26.8554C50.6951 26.8714 53.8168 25.7155 56.2598 23.6008C58.7029 21.4862 60.3026 18.5554 60.7639 15.3489C61.2253 12.1425 60.5172 8.87652 58.7702 6.15334C57.0232 3.43015 54.3552 1.43336 51.2581 0.531162C48.1609 -0.371037 44.8436 -0.117804 41.9177 1.24417C38.9917 2.60614 36.6546 4.985 35.3372 7.9421C34.0198 10.8992 33.811 14.2351 34.7493 17.3348L22.3019 25.3522C20.3662 23.6336 17.9779 22.5128 15.4237 22.1247C12.8695 21.7365 10.2581 22.0974 7.90305 23.164C5.54804 24.2306 3.54956 25.9576 2.14765 28.1375C0.745738 30.3174 0 32.8576 0 35.4529C0 38.0483 0.745738 40.5885 2.14765 42.7684C3.54956 44.9483 5.54804 46.6753 7.90305 47.7419C10.2581 48.8085 12.8695 49.1694 15.4237 48.7812C17.9779 48.393 20.3662 47.2723 22.3019 45.5537L34.7462 53.5987C33.9251 56.3118 33.9766 59.2159 34.8932 61.8979C35.8098 64.5799 37.545 66.9031 39.8518 68.5371C42.1586 70.1711 44.9195 71.0326 47.7418 70.9991C50.5641 70.9655 53.304 70.0386 55.5716 68.3502C57.8392 66.6617 59.5192 64.2979 60.3723 61.5948C61.2255 58.8918 61.2085 55.9872 60.3237 53.2945C59.4389 50.6017 57.7314 48.2578 55.4442 46.5964C53.1569 44.9349 50.4064 44.0404 47.5839 44.0402ZM47.5839 7.27693C48.7901 7.27693 49.9692 7.63629 50.9721 8.30956C51.975 8.98282 52.7567 9.93976 53.2183 11.0594C53.6799 12.179 53.8007 13.4109 53.5653 14.5995C53.33 15.7881 52.7492 16.8798 51.8963 17.7367C51.0434 18.5937 49.9567 19.1772 48.7737 19.4136C47.5906 19.6501 46.3644 19.5287 45.25 19.065C44.1356 18.6012 43.1832 17.8159 42.513 16.8083C41.8429 15.8006 41.4852 14.616 41.4852 13.4042C41.4852 11.7791 42.1278 10.2206 43.2715 9.07155C44.4152 7.92248 45.9664 7.27693 47.5839 7.27693ZM13.4314 41.5894C12.2252 41.5894 11.0461 41.23 10.0432 40.5567C9.04029 39.8835 8.25861 38.9265 7.79702 37.8069C7.33542 36.6873 7.21465 35.4553 7.44997 34.2668C7.68529 33.0782 8.26613 31.9864 9.11904 31.1295C9.97195 30.2726 11.0586 29.6891 12.2416 29.4526C13.4247 29.2162 14.6509 29.3376 15.7653 29.8013C16.8797 30.2651 17.8321 31.0504 18.5023 32.058C19.1724 33.0657 19.5301 34.2503 19.5301 35.4621C19.5301 37.0872 18.8876 38.6457 17.7438 39.7947C16.6001 40.9438 15.0489 41.5894 13.4314 41.5894ZM47.5839 63.6473C46.3777 63.6473 45.1986 63.288 44.1956 62.6147C43.1927 61.9414 42.411 60.9845 41.9495 59.8649C41.4879 58.7453 41.3671 57.5133 41.6024 56.3248C41.8377 55.1362 42.4186 54.0444 43.2715 53.1875C44.1244 52.3306 45.2111 51.7471 46.3941 51.5106C47.5771 51.2742 48.8033 51.3956 49.9177 51.8593C51.0321 52.3231 51.9846 53.1084 52.6547 54.116C53.3248 55.1236 53.6825 56.3083 53.6825 57.5201C53.6825 59.1452 53.04 60.7036 51.8963 61.8527C50.7525 63.0018 49.2013 63.6473 47.5839 63.6473Z" fill="#CEAD00"/>
</svg>
