<svg width="98" height="111" viewBox="0 0 98 111" fill="none" xmlns="http://www.w3.org/2000/svg">
<path d="M49.055 57.9891C47.8845 57.9891 46.787 57.8036 45.7628 57.4325C44.7385 57.0673 43.7874 56.443 42.9095 55.5595L2.52442 14.9178C0.914865 13.298 0.0749752 11.2718 0.00474031 8.83922C-0.0713475 6.4125 0.768542 4.31563 2.52442 2.5486C4.13397 0.928824 6.18249 0.118935 8.66997 0.118935C11.1575 0.118935 13.206 0.928824 14.8155 2.5486L49.055 36.7848L83.2946 2.5486C84.9041 0.928824 86.9146 0.080649 89.326 0.00407776C91.7432 -0.0666034 93.8298 0.781571 95.5857 2.5486C97.1952 4.16838 98 6.22991 98 8.7332C98 11.2365 97.1952 13.298 95.5857 14.9178L55.2006 55.5595C54.3227 56.443 53.3716 57.0673 52.3473 57.4325C51.323 57.8036 50.2256 57.9891 49.055 57.9891ZM49.055 111C47.8845 111 46.787 110.814 45.7628 110.443C44.7385 110.078 43.7874 109.454 42.9095 108.57L2.52442 67.9287C0.914865 66.3089 0.0749752 64.2827 0.00474031 61.8501C-0.0713475 59.4234 0.768542 57.3265 2.52442 55.5595C4.13397 53.9397 6.18249 53.1298 8.66997 53.1298C11.1575 53.1298 13.206 53.9397 14.8155 55.5595L49.055 89.7956L83.2946 55.5595C84.9041 53.9397 86.9146 53.0915 89.326 53.0149C91.7432 52.9443 93.8298 53.7924 95.5857 55.5595C97.1952 57.1792 98 59.2408 98 61.7441C98 64.2474 97.1952 66.3089 95.5857 67.9287L55.2006 108.57C54.3227 109.454 53.3716 110.078 52.3473 110.443C51.323 110.814 50.2256 111 49.055 111Z" fill="#2A3144"/>
</svg>
