<svg width="353" height="323" viewBox="0 0 353 323" fill="none" xmlns="http://www.w3.org/2000/svg">
<path d="M193.081 301.879L185.731 295.009V292.939L193.201 286.009L195.661 289.399L190.681 293.959L195.661 298.429L193.081 301.879ZM207.678 283.339L201.198 306.379H196.248L202.698 283.339H207.678ZM221.008 302.149L218.998 302.269C217.458 302.269 216.518 301.759 216.178 300.739H216.028C215.368 301.759 214.358 302.269 212.998 302.269C211.198 302.269 209.928 301.639 209.188 300.379C208.468 299.119 208.108 297.249 208.108 294.769C208.108 292.269 208.518 290.389 209.338 289.129C210.158 287.869 211.338 287.239 212.878 287.239C213.938 287.239 214.758 287.489 215.338 287.989V282.739H220.348V297.559C220.348 297.939 220.428 298.199 220.588 298.339C220.748 298.459 221.038 298.519 221.458 298.519L221.008 302.149ZM214.198 291.469C213.778 291.469 213.498 291.729 213.358 292.249C213.218 292.749 213.148 293.479 213.148 294.439C213.148 295.379 213.158 296.019 213.178 296.359C213.198 296.699 213.238 297.049 213.298 297.409C213.378 297.749 213.488 297.989 213.628 298.129C213.788 298.249 214.038 298.309 214.378 298.309C214.738 298.309 215.108 298.219 215.488 298.039V291.829C215.068 291.589 214.638 291.469 214.198 291.469ZM228.585 291.529C228.065 291.529 227.725 291.709 227.565 292.069C227.405 292.409 227.325 292.939 227.325 293.659H229.935V292.939C229.935 291.999 229.485 291.529 228.585 291.529ZM228.705 287.239C230.765 287.239 232.235 287.739 233.115 288.739C234.015 289.719 234.465 291.129 234.465 292.969C234.465 293.209 234.395 294.289 234.255 296.209H227.415C227.415 297.709 228.105 298.459 229.485 298.459C230.145 298.459 231.435 298.229 233.355 297.769L233.775 301.489C232.095 302.009 230.415 302.269 228.735 302.269C226.675 302.269 225.095 301.599 223.995 300.259C222.895 298.899 222.345 297.059 222.345 294.739C222.345 289.739 224.465 287.239 228.705 287.239ZM248.186 287.599L245.126 301.969H238.046L234.956 287.599H240.236L241.526 296.809H241.916L243.296 287.599H248.186ZM248.318 291.859C248.318 290.399 248.758 289.269 249.638 288.469C250.538 287.649 251.768 287.239 253.328 287.239C254.888 287.239 256.468 287.439 258.068 287.839L257.558 292.009C255.518 291.549 254.148 291.319 253.448 291.319C253.028 291.319 252.818 291.489 252.818 291.829C252.818 292.049 253.048 292.249 253.508 292.429C255.108 293.009 256.308 293.669 257.108 294.409C257.928 295.149 258.338 296.259 258.338 297.739C258.338 299.219 257.958 300.349 257.198 301.129C256.438 301.889 255.268 302.269 253.688 302.269C252.128 302.269 250.568 302.069 249.008 301.669L249.338 297.619C251.338 298.159 252.628 298.429 253.208 298.429C253.808 298.429 254.108 298.289 254.108 298.009C254.108 297.729 253.888 297.509 253.448 297.349C251.668 296.669 250.368 295.949 249.548 295.189C248.728 294.409 248.318 293.299 248.318 291.859ZM269.282 295.009L261.932 301.879L259.352 298.429L264.332 293.959L259.352 289.399L261.812 286.009L269.282 292.939V295.009Z" fill="#F0F0F0"/>
<path d="M129.004 256.419C125.771 256.419 124.188 255.602 124.254 253.969C124.254 252.435 125.804 251.669 128.904 251.669C129.638 251.669 130.338 251.752 131.004 251.919C132.104 250.819 132.654 249.152 132.654 246.919C132.654 243.052 130.071 241.119 124.904 241.119C122.204 241.119 119.638 241.702 117.204 242.869C116.304 243.302 115.488 243.702 114.754 244.069C114.054 244.435 113.404 244.619 112.804 244.619C112.204 244.619 111.904 244.435 111.904 244.069C111.904 243.635 112.238 243.002 112.904 242.169C113.571 241.302 114.504 240.435 115.704 239.569C118.771 237.435 122.254 236.352 126.154 236.319C131.254 236.319 135.004 237.335 137.404 239.369C139.471 241.069 140.504 243.385 140.504 246.319C140.504 249.719 138.838 252.319 135.504 254.119C138.704 255.952 140.604 258.202 141.204 260.869C141.404 261.802 141.504 263.035 141.504 264.569C141.504 266.102 141.088 267.552 140.254 268.919C139.421 270.285 138.304 271.435 136.904 272.369C134.104 274.169 130.521 275.069 126.154 275.069C123.054 275.069 119.604 274.369 115.804 272.969C113.271 272.035 111.404 270.919 110.204 269.619C109.604 268.985 109.304 268.352 109.304 267.719C109.338 267.085 109.654 266.769 110.254 266.769C110.888 266.769 112.071 266.985 113.804 267.419V267.369C113.804 264.769 114.104 262.102 114.704 259.369C115.738 254.602 116.938 250.869 118.304 248.169C119.771 245.169 121.288 243.669 122.854 243.669C123.288 243.669 123.504 244.419 123.504 245.919C123.504 247.419 123.354 248.952 123.054 250.519C122.788 252.085 122.488 253.635 122.154 255.169C121.854 256.669 121.554 258.035 121.254 259.269C120.988 260.502 120.854 261.385 120.854 261.919L120.354 269.469C122.321 270.002 123.988 270.269 125.354 270.269C126.721 270.269 127.954 270.035 129.054 269.569C131.821 268.402 133.204 266.369 133.204 263.469C133.204 261.735 133.038 260.302 132.704 259.169C132.371 258.035 131.771 257.035 130.904 256.169C130.138 256.335 129.504 256.419 129.004 256.419ZM176.205 262.169C176.805 262.169 177.105 262.935 177.105 264.469C177.105 265.302 176.755 266.319 176.055 267.519C175.355 268.685 174.438 269.769 173.305 270.769C172.205 271.735 170.972 272.535 169.605 273.169C168.238 273.802 166.905 274.119 165.605 274.119C163.838 274.119 162.655 272.569 162.055 269.469C161.188 270.902 160.055 272.085 158.655 273.019C157.255 273.919 155.372 274.369 153.005 274.369C150.672 274.369 148.788 273.635 147.355 272.169C145.922 270.702 145.222 268.919 145.255 266.819C145.255 261.152 147.138 256.685 150.905 253.419C152.505 252.052 153.988 251.152 155.355 250.719C156.755 250.285 158.222 250.069 159.755 250.069C161.288 250.069 162.538 250.335 163.505 250.869C163.972 249.902 164.505 249.419 165.105 249.419C166.272 249.419 167.372 249.935 168.405 250.969C169.472 251.969 170.005 252.919 170.005 253.819C169.538 254.919 168.855 256.235 167.955 257.769C167.688 259.302 167.555 261.452 167.555 264.219C167.555 266.985 167.905 268.369 168.605 268.369C169.472 268.369 171.572 266.635 174.905 263.169C175.505 262.502 175.938 262.169 176.205 262.169ZM152.605 265.169C152.605 267.735 153.555 269.019 155.455 269.019C157.488 268.985 159.172 267.902 160.505 265.769C160.972 265.035 161.355 264.135 161.655 263.069C161.655 259.335 161.988 256.135 162.655 253.469C159.955 254.002 157.605 255.302 155.605 257.369C153.605 259.435 152.605 262.035 152.605 265.169ZM191.256 257.169C191.256 255.969 190.54 255.369 189.106 255.369C187.706 255.369 186.323 256.469 184.956 258.669C183.59 260.835 182.74 263.052 182.406 265.319C182.473 266.085 182.54 266.852 182.606 267.619C182.673 268.385 182.706 269.135 182.706 269.869C182.706 271.635 182.123 272.835 180.956 273.469C180.423 273.769 179.906 274.052 179.406 274.319C178.94 274.585 178.39 274.719 177.756 274.719C177.123 274.719 176.556 274.302 176.056 273.469C175.59 272.602 175.356 271.269 175.356 269.469C175.356 264.435 175.723 260.069 176.456 256.369C177.59 250.635 179.84 244.502 183.206 237.969C183.673 237.069 184.356 236.635 185.256 236.669C186.156 236.669 186.89 237.285 187.456 238.519C188.023 239.752 188.29 240.785 188.256 241.619C188.256 242.452 188.123 243.269 187.856 244.069C187.623 244.835 187.306 245.602 186.906 246.369C186.54 247.102 186.106 247.869 185.606 248.669C185.14 249.435 184.673 250.269 184.206 251.169L183.456 254.769C184.756 252.602 186.506 251.152 188.706 250.419C189.506 250.152 190.39 250.019 191.356 250.019C193.623 250.019 195.34 250.535 196.506 251.569C197.673 252.569 198.256 254.002 198.256 255.869C198.256 257.702 198.006 259.569 197.506 261.469C197.04 263.369 196.69 264.735 196.456 265.569C196.256 266.369 196.156 267.035 196.156 267.569C196.156 268.102 196.34 268.369 196.706 268.369C197.206 268.369 197.823 268.052 198.556 267.419C199.29 266.785 200.023 266.102 200.756 265.369C201.49 264.602 202.156 263.902 202.756 263.269C203.39 262.635 203.823 262.319 204.056 262.319C204.523 262.319 204.756 262.885 204.756 264.019C204.756 266.352 203.606 268.602 201.306 270.769C197.44 273.035 194.973 274.169 193.906 274.169C193.806 274.169 193.74 274.152 193.706 274.119C191.04 274.119 189.706 271.985 189.706 267.719C189.706 265.885 189.873 264.202 190.206 262.669C190.573 261.135 190.84 260.019 191.006 259.319C191.173 258.619 191.256 257.902 191.256 257.169ZM208.243 274.119C204.91 274.119 203.243 271.002 203.243 264.769C203.243 261.369 203.66 258.285 204.493 255.519C205.793 251.252 207.26 249.119 208.893 249.119C209.86 249.119 210.626 249.769 211.193 251.069C211.66 252.069 211.876 253.052 211.843 254.019C211.843 255.352 211.443 257.702 210.643 261.069C209.876 264.002 209.493 265.819 209.493 266.519C209.493 267.219 209.66 267.702 209.993 267.969C210.36 268.235 210.776 268.369 211.243 268.369C211.743 268.369 212.36 268.052 213.093 267.419C213.826 266.785 214.56 266.102 215.293 265.369C216.026 264.602 216.693 263.902 217.293 263.269C217.926 262.635 218.36 262.319 218.593 262.319C219.06 262.319 219.293 262.885 219.293 264.019C219.293 266.352 218.11 268.635 215.743 270.869C213.41 273.069 210.91 274.152 208.243 274.119ZM210.293 245.069C209.393 243.735 208.943 242.302 208.943 240.769C208.943 239.235 209.176 237.969 209.643 236.969C210.143 235.935 210.61 235.185 211.043 234.719C211.476 234.219 211.976 233.969 212.543 233.969C213.476 233.969 214.326 234.669 215.093 236.069C215.86 237.435 216.243 238.585 216.243 239.519C216.243 241.252 215.626 242.619 214.393 243.619C213.193 244.585 211.826 245.069 210.293 245.069ZM247.494 262.169C248.094 262.169 248.394 262.935 248.394 264.469C248.394 265.302 248.044 266.319 247.344 267.519C246.644 268.685 245.727 269.769 244.594 270.769C243.494 271.735 242.261 272.535 240.894 273.169C239.527 273.802 238.194 274.119 236.894 274.119C235.127 274.119 233.944 272.569 233.344 269.469C232.477 270.902 231.344 272.085 229.944 273.019C228.544 273.919 226.661 274.369 224.294 274.369C221.961 274.369 220.077 273.635 218.644 272.169C217.211 270.702 216.511 268.919 216.544 266.819C216.544 261.152 218.427 256.685 222.194 253.419C223.794 252.052 225.277 251.152 226.644 250.719C228.044 250.285 229.511 250.069 231.044 250.069C232.577 250.069 233.827 250.335 234.794 250.869C235.261 249.902 235.794 249.419 236.394 249.419C237.561 249.419 238.661 249.935 239.694 250.969C240.761 251.969 241.294 252.919 241.294 253.819C240.827 254.919 240.144 256.235 239.244 257.769C238.977 259.302 238.844 261.452 238.844 264.219C238.844 266.985 239.194 268.369 239.894 268.369C240.761 268.369 242.861 266.635 246.194 263.169C246.794 262.502 247.227 262.169 247.494 262.169ZM223.894 265.169C223.894 267.735 224.844 269.019 226.744 269.019C228.777 268.985 230.461 267.902 231.794 265.769C232.261 265.035 232.644 264.135 232.944 263.069C232.944 259.335 233.277 256.135 233.944 253.469C231.244 254.002 228.894 255.302 226.894 257.369C224.894 259.435 223.894 262.035 223.894 265.169Z" fill="url(#paint0_linear_519_105)"/>
<rect x="59" width="223.969" height="223.969" rx="20" fill="url(#paint1_linear_519_105)"/>
<rect x="87.4335" y="109.037" width="79.5009" height="22.5587" rx="11.2794" transform="rotate(-36.5617 87.4335 109.037)" fill="white"/>
<rect x="254.228" y="115.029" width="79.5008" height="22.5587" rx="11.2794" transform="rotate(143.438 254.228 115.029)" fill="white"/>
<rect width="79.5009" height="22.5587" rx="11.2794" transform="matrix(-0.803216 -0.595687 -0.595687 0.803216 164.99 144.268)" fill="white" fill-opacity="0.56"/>
<rect width="79.5009" height="22.5587" rx="11.2794" transform="matrix(0.803216 0.595687 0.595687 -0.803216 176.671 79.7983)" fill="white" fill-opacity="0.56"/>
<defs>
<linearGradient id="paint0_linear_519_105" x1="60.7885" y1="211.349" x2="99.5206" y2="356.536" gradientUnits="userSpaceOnUse">
<stop stop-color="#FF512F"/>
<stop offset="1" stop-color="#F09819"/>
</linearGradient>
<linearGradient id="paint1_linear_519_105" x1="97.5686" y1="27.0657" x2="240.002" y2="207.052" gradientUnits="userSpaceOnUse">
<stop stop-color="#FF512F"/>
<stop offset="1" stop-color="#F09819"/>
</linearGradient>
</defs>
</svg>
