<svg width="53" height="51" viewBox="0 0 53 51" fill="none" xmlns="http://www.w3.org/2000/svg">
<path d="M31.75 10.75V5.5H21.25V10.75H31.75ZM5.5 18.625V42.25C5.5 43.6937 6.68125 44.875 8.125 44.875H44.875C46.3187 44.875 47.5 43.6937 47.5 42.25V18.625C47.5 17.1812 46.3187 16 44.875 16H8.125C6.68125 16 5.5 17.1812 5.5 18.625ZM47.5 10.75C50.4137 10.75 52.75 13.0863 52.75 16V44.875C52.75 47.7887 50.4137 50.125 47.5 50.125H5.5C2.58625 50.125 0.25 47.7887 0.25 44.875L0.27625 16C0.27625 13.0863 2.58625 10.75 5.5 10.75H16V5.5C16 2.58625 18.3363 0.25 21.25 0.25H31.75C34.6637 0.25 37 2.58625 37 5.5V10.75H47.5Z" fill="#4A7DFF"/>
</svg>
