<svg width="49" height="49" viewBox="0 0 49 49" fill="none" xmlns="http://www.w3.org/2000/svg">
<g clip-path="url(#clip0_519_102)">
<path d="M41.4816 8.90251C38.3042 7.44436 34.9515 6.40365 31.507 5.80633C31.4758 5.80107 31.4437 5.80561 31.4152 5.81932C31.3867 5.83303 31.3631 5.85524 31.3477 5.88289C30.9159 6.64851 30.4382 7.64995 30.1044 8.43395C26.3914 7.87048 22.6147 7.87048 18.9017 8.43395C18.5294 7.56059 18.1081 6.70888 17.64 5.88289C17.6243 5.85554 17.6007 5.83359 17.5722 5.81992C17.5438 5.80626 17.5119 5.80152 17.4807 5.80633C14.0354 6.40045 10.682 7.4417 7.50619 8.90251C7.47901 8.91289 7.45628 8.93237 7.44187 8.95764C1.09025 18.4483 -0.652314 27.7063 0.202123 36.8478C0.205186 36.8907 0.232748 36.9336 0.266436 36.9611C3.96509 39.7009 8.10212 41.7927 12.5011 43.1474C12.5322 43.1572 12.5656 43.1568 12.5964 43.1464C12.6272 43.1359 12.6539 43.1159 12.6726 43.0892C13.6159 41.8029 14.455 40.4463 15.1777 39.0191C15.1928 38.9897 15.198 38.9563 15.1925 38.9237C15.1869 38.8911 15.171 38.8612 15.1471 38.8385C15.1313 38.8235 15.1125 38.812 15.092 38.8048C13.7726 38.2977 12.4947 37.6884 11.27 36.9826C11.2358 36.9632 11.2104 36.9314 11.1989 36.8938C11.1875 36.8561 11.1911 36.8156 11.2087 36.7805C11.2192 36.7577 11.2349 36.7377 11.2547 36.7223C11.5119 36.5293 11.7692 36.3272 12.0142 36.1251C12.0358 36.1077 12.0618 36.0965 12.0893 36.0927C12.1168 36.0889 12.1448 36.0927 12.1704 36.1036C20.1911 39.7664 28.8732 39.7664 36.7959 36.1036C36.8224 36.0922 36.8515 36.0881 36.8801 36.0919C36.9086 36.0957 36.9357 36.1071 36.9582 36.1251C37.2032 36.3272 37.4605 36.5293 37.7177 36.7223C37.7386 36.7375 37.7553 36.7577 37.7665 36.7809C37.7776 36.8042 37.7828 36.8299 37.7816 36.8557C37.7804 36.8815 37.7728 36.9066 37.7595 36.9287C37.7462 36.9509 37.7277 36.9694 37.7055 36.9826C36.4836 37.6949 35.2041 38.3034 33.8804 38.8017C33.8593 38.8093 33.8401 38.8215 33.8243 38.8374C33.8084 38.8533 33.7962 38.8725 33.7886 38.8936C33.7815 38.914 33.7786 38.9357 33.7802 38.9573C33.7818 38.9789 33.7878 38.9999 33.7977 39.0191C34.5327 40.4432 35.3749 41.8029 36.2998 43.0892C36.3185 43.1159 36.3452 43.1359 36.376 43.1464C36.4069 43.1568 36.4403 43.1572 36.4713 43.1474C40.8777 41.7969 45.0214 39.7048 48.7244 36.9611C48.7429 36.9483 48.7583 36.9314 48.7695 36.9118C48.7806 36.8922 48.7872 36.8703 48.7887 36.8478C49.8116 26.2791 47.0767 17.0978 41.5428 8.9607C41.5372 8.94726 41.5289 8.93514 41.5184 8.92512C41.5078 8.91509 41.4953 8.90739 41.4816 8.90251ZM16.3752 31.2802C13.9589 31.2802 11.9713 29.063 11.9713 26.3435C11.9713 23.6209 13.9221 21.4036 16.3752 21.4036C18.8466 21.4036 20.8158 23.6393 20.7791 26.3435C20.7791 29.063 18.8282 31.2802 16.3752 31.2802ZM32.6554 31.2802C30.2422 31.2802 28.2516 29.063 28.2516 26.3435C28.2516 23.6209 30.2024 21.4036 32.6554 21.4036C35.1269 21.4036 37.0991 23.6393 37.0593 26.3435C37.0593 29.063 35.1269 31.2802 32.6554 31.2802Z" fill="#391E01"/>
</g>
<defs>
<clipPath id="clip0_519_102">
<rect width="49" height="49" fill="white"/>
</clipPath>
</defs>
</svg>
