<svg width="14" height="14" viewBox="0 0 14 14" fill="none" xmlns="http://www.w3.org/2000/svg">
<path d="M5 1.8H3.56C2.664 1.8 2.216 1.8 1.8736 1.9744C1.57252 2.12775 1.32775 2.37252 1.1744 2.6736C1 3.016 1 3.464 1 4.36V10.44C1 11.336 1 11.784 1.1744 12.1264C1.3278 12.4274 1.57255 12.6722 1.8736 12.8256C2.2152 13 2.6632 13 3.5576 13H9.6424C10.5368 13 10.984 13 11.3256 12.8256C11.6272 12.672 11.872 12.4272 12.0256 12.1264C12.2 11.784 12.2 11.3368 12.2 10.4424V9M13 5V1M13 1H9M13 1L7.4 6.6" stroke="#FFFA7E" stroke-width="2" stroke-linecap="round" stroke-linejoin="round"/>
</svg>
