<svg width="32" height="32" viewBox="0 0 32 32" fill="none" xmlns="http://www.w3.org/2000/svg">
<circle cx="16" cy="16" r="16" fill="#4C4153"/>
<g clip-path="url(#clip0_17_199)">
<path fill-rule="evenodd" clip-rule="evenodd" d="M16 9C12.1325 9 9 12.1325 9 16C9 19.0975 11.0037 21.7138 13.7862 22.6413C14.1363 22.7025 14.2675 22.4925 14.2675 22.3088C14.2675 22.1425 14.2587 21.5913 14.2587 21.005C12.5 21.3288 12.045 20.5763 11.905 20.1825C11.8262 19.9813 11.485 19.36 11.1875 19.1938C10.9425 19.0625 10.5925 18.7388 11.1787 18.73C11.73 18.7213 12.1237 19.2375 12.255 19.4475C12.885 20.5063 13.8912 20.2088 14.2937 20.025C14.355 19.57 14.5387 19.2638 14.74 19.0888C13.1825 18.9138 11.555 18.31 11.555 15.6325C11.555 14.8713 11.8263 14.2413 12.2725 13.7513C12.2025 13.5763 11.9575 12.8588 12.3425 11.8963C12.3425 11.8963 12.9287 11.7125 14.2675 12.6138C14.8275 12.4563 15.4225 12.3775 16.0175 12.3775C16.6125 12.3775 17.2075 12.4563 17.7675 12.6138C19.1062 11.7038 19.6925 11.8963 19.6925 11.8963C20.0775 12.8588 19.8325 13.5763 19.7625 13.7513C20.2087 14.2413 20.48 14.8625 20.48 15.6325C20.48 18.3188 18.8438 18.9138 17.2863 19.0888C17.54 19.3075 17.7587 19.7275 17.7587 20.3837C17.7587 21.32 17.75 22.0725 17.75 22.3088C17.75 22.4925 17.8812 22.7113 18.2312 22.6413C19.6209 22.1721 20.8284 21.279 21.6838 20.0876C22.5393 18.8963 22.9996 17.4667 23 16C23 12.1325 19.8675 9 16 9Z" fill="white"/>
</g>
<defs>
<clipPath id="clip0_17_199">
<rect width="14" height="14" fill="white" transform="translate(9 9)"/>
</clipPath>
</defs>
</svg>
