<svg width="38" height="38" viewBox="0 0 38 38" fill="none" xmlns="http://www.w3.org/2000/svg">
<path d="M18.9842 3.16663C10.2442 3.16663 3.16666 10.26 3.16666 19C3.16666 27.74 10.2442 34.8333 18.9842 34.8333C27.74 34.8333 34.8333 27.74 34.8333 19C34.8333 10.26 27.74 3.16663 18.9842 3.16663ZM29.9567 12.6666H25.2858C24.7903 10.7056 24.0565 8.81263 23.1008 7.02996C25.989 8.0243 28.4227 10.0252 29.9567 12.6666ZM19 6.39663C20.3142 8.29663 21.3433 10.4025 22.0242 12.6666H15.9758C16.6567 10.4025 17.6858 8.29663 19 6.39663ZM6.74499 22.1666C6.49166 21.1533 6.33332 20.0925 6.33332 19C6.33332 17.9075 6.49166 16.8466 6.74499 15.8333H12.0967C11.97 16.8783 11.875 17.9233 11.875 19C11.875 20.0766 11.97 21.1216 12.0967 22.1666H6.74499ZM8.04332 25.3333H12.7142C13.2208 27.3125 13.9492 29.2125 14.8992 30.97C12.0079 29.9811 9.57256 27.9788 8.04332 25.3333ZM12.7142 12.6666H8.04332C9.57256 10.0212 12.0079 8.01886 14.8992 7.02996C13.9435 8.81263 13.2097 10.7056 12.7142 12.6666ZM19 31.6033C17.6858 29.7033 16.6567 27.5975 15.9758 25.3333H22.0242C21.3433 27.5975 20.3142 29.7033 19 31.6033ZM22.705 22.1666H15.295C15.1525 21.1216 15.0417 20.0766 15.0417 19C15.0417 17.9233 15.1525 16.8625 15.295 15.8333H22.705C22.8475 16.8625 22.9583 17.9233 22.9583 19C22.9583 20.0766 22.8475 21.1216 22.705 22.1666ZM23.1008 30.97C24.0508 29.2125 24.7792 27.3125 25.2858 25.3333H29.9567C28.4227 27.9747 25.989 29.9756 23.1008 30.97ZM25.9033 22.1666C26.03 21.1216 26.125 20.0766 26.125 19C26.125 17.9233 26.03 16.8783 25.9033 15.8333H31.255C31.5083 16.8466 31.6667 17.9075 31.6667 19C31.6667 20.0925 31.5083 21.1533 31.255 22.1666H25.9033Z" fill="#384D7E"/>
</svg>
