<svg width="13" height="13" viewBox="0 0 13 13" fill="none" xmlns="http://www.w3.org/2000/svg">
<path d="M0 0.931125C0 0.416813 0.427375 0 0.954687 0H12.0453C12.5726 0 13 0.416813 13 0.931125V12.0689C13 12.5832 12.5726 13 12.0453 13H0.954687C0.427375 13 0 12.5832 0 12.0689V0.931125ZM4.01619 10.8826V5.01231H2.06538V10.8826H4.01619ZM3.04119 4.21038C3.72125 4.21038 4.14456 3.76025 4.14456 3.19638C4.13237 2.62031 3.72206 2.18238 3.05419 2.18238C2.38631 2.18238 1.95 2.62113 1.95 3.19638C1.95 3.76025 2.37331 4.21038 3.02819 4.21038H3.04119V4.21038ZM7.02894 10.8826V7.60419C7.02894 7.42869 7.04194 7.25319 7.09394 7.12806C7.2345 6.77787 7.55544 6.41469 8.09494 6.41469C8.801 6.41469 9.08294 6.95256 9.08294 7.74231V10.8826H11.0337V7.51562C11.0337 5.71187 10.0718 4.87338 8.788 4.87338C7.75287 4.87338 7.28894 5.44212 7.02894 5.84269V5.863H7.01594C7.02025 5.85622 7.02459 5.84945 7.02894 5.84269V5.01231H5.07894C5.10331 5.56319 5.07894 10.8826 5.07894 10.8826H7.02894Z" fill="white"/>
</svg>
