<svg width="63" height="60" viewBox="0 0 63 60" fill="none" xmlns="http://www.w3.org/2000/svg">
<path d="M9.625 22.25L6.65625 15.8437L0.25 12.875L6.65625 9.90625L9.625 3.5L12.5937 9.90625L19 12.875L12.5937 15.8437L9.625 22.25ZM50.25 12.875L48.2969 8.57812L44 6.625L48.2969 4.67188L50.25 0.375L52.2031 4.67188L56.5 6.625L52.2031 8.57812L50.25 12.875ZM56.5 25.375L54.5469 21.0781L50.25 19.125L54.5469 17.1719L56.5 12.875L58.4531 17.1719L62.75 19.125L58.4531 21.0781L56.5 25.375ZM31.5 37.875C28.8958 37.875 26.6823 36.9635 24.8594 35.1406C23.0365 33.3177 22.125 31.1042 22.125 28.5V9.75C22.125 7.14583 23.0365 4.93229 24.8594 3.10938C26.6823 1.28646 28.8958 0.375 31.5 0.375C34.1042 0.375 36.3177 1.28646 38.1406 3.10938C39.9635 4.93229 40.875 7.14583 40.875 9.75V28.5C40.875 31.1042 39.9635 33.3177 38.1406 35.1406C36.3177 36.9635 34.1042 37.875 31.5 37.875ZM28.375 59.75V50.1406C22.9583 49.4115 18.4792 46.9896 14.9375 42.875C11.3958 38.7604 9.625 33.9688 9.625 28.5H15.875C15.875 32.8229 17.399 36.5073 20.4469 39.5531C23.4927 42.601 27.1771 44.125 31.5 44.125C35.8229 44.125 39.5083 42.601 42.5563 39.5531C45.6021 36.5073 47.125 32.8229 47.125 28.5H53.375C53.375 33.9688 51.6042 38.7604 48.0625 42.875C44.5208 46.9896 40.0417 49.4115 34.625 50.1406V59.75H28.375ZM31.5 31.625C32.3854 31.625 33.1281 31.325 33.7281 30.725C34.326 30.1271 34.625 29.3854 34.625 28.5V9.75C34.625 8.86458 34.326 8.12188 33.7281 7.52188C33.1281 6.92396 32.3854 6.625 31.5 6.625C30.6146 6.625 29.8729 6.92396 29.275 7.52188C28.675 8.12188 28.375 8.86458 28.375 9.75V28.5C28.375 29.3854 28.675 30.1271 29.275 30.725C29.8729 31.325 30.6146 31.625 31.5 31.625Z" fill="#CEAD00"/>
</svg>
