<svg width="516" height="692" viewBox="0 0 516 692" fill="none" xmlns="http://www.w3.org/2000/svg">
<g clip-path="url(#clip0_519_88)">
<path d="M543.345 504.926C542.074 485.693 540.037 466.518 537.238 447.447C528.443 388.716 512.803 331.216 490.637 276.122C477.608 244.008 467.324 225.615 467.324 225.615L378.003 237.135C378.003 237.135 388.312 258.644 399.461 300.795C403.986 317.903 408.633 338.472 412.811 362.477C414.938 374.591 416.915 387.496 418.695 401.365C421.168 420.673 423.219 441.712 424.678 464.382C425.519 477.188 426.112 490.538 426.508 504.407C426.656 509.451 426.878 514.321 426.953 519.513C427.107 535.951 426.133 552.38 424.035 568.685C422.206 583.518 419.536 598.278 416.347 612.913C411.826 633.567 406.298 653.987 399.783 674.101C394.812 689.412 389.412 704.581 383.59 719.589C375.085 741.617 366.531 761.419 359.14 777.909C346.729 805.573 337.606 823.967 337.606 827.799C337.606 839.913 346.259 862.608 406.754 877.738C501.366 901.372 510.489 862.385 510.489 862.385C510.489 862.385 516.496 844.14 523.493 808.194C526.954 790.443 530.638 768.515 533.975 741.988C535.978 726.116 537.832 708.662 539.463 689.676C542.854 649.68 544.668 609.566 544.902 569.427C544.952 563.345 545.1 557.461 545.1 551.206C545.1 535.384 544.358 520.032 543.345 504.926Z" fill="#201D22"/>
<path d="M452.565 743.348C417.879 737.316 395.753 727.204 383.614 719.639C375.11 741.667 366.556 761.469 359.164 777.959C381.81 790.295 410.562 800.085 441.761 805.5C459.784 808.639 477.658 810.221 494.444 810.221C504.679 810.221 514.296 809.406 523.518 808.244C526.979 790.493 530.662 768.565 534 742.038C523.023 745.919 495.73 750.863 452.565 743.348ZM478.77 627.821C451.749 625.151 430.958 619.218 416.347 612.938C411.826 633.592 406.298 654.012 399.783 674.126C421.143 682.185 446.285 687.995 472.59 690.591C483.196 691.629 493.727 692.173 503.987 692.173C516.398 692.173 528.165 691.209 539.463 689.725C541.144 669.948 542.554 648.513 543.543 625.324C528.017 628.661 506.237 630.516 478.77 627.821ZM486.409 575.088C506.731 575.088 526.707 573.036 544.902 569.452C544.952 563.37 545.1 557.486 545.1 551.232C545.1 535.385 544.383 520.032 543.345 504.927C530.267 508.338 511.577 511.651 485.198 511.997C458.399 511.874 439.536 508.165 426.508 504.432C426.656 509.476 426.878 514.346 426.953 519.538C427.107 535.976 426.133 552.405 424.035 568.71C442.898 572.69 463.714 574.965 484.877 575.064L486.409 575.088ZM480.254 461.935C499.67 458.998 518.749 454.154 537.214 447.472C534.092 426.604 530.092 405.876 525.223 385.345C512.961 390.389 495.581 396.001 471.304 399.486C453.896 402.196 436.229 402.835 418.671 401.39C421.143 420.698 423.195 441.737 424.653 464.407C428.411 464.555 431.823 465.124 435.679 465.124C450.216 465.149 465.346 464.061 480.254 461.935ZM511.676 335.456C505.491 315.391 498.464 295.596 490.612 276.123C476.868 282.95 462.484 288.407 447.67 292.415C431.939 296.93 415.768 299.739 399.437 300.795C403.961 317.903 408.609 338.472 412.787 362.477C430.277 360.865 447.597 357.755 464.555 353.182C481.341 348.534 496.941 342.304 511.676 335.456Z" fill="#201D22"/>
<path d="M806.192 106.429C805.104 104.921 695.436 -41.7557 553.185 22.6209C489.377 51.4718 448.189 98.617 433.257 159.458C405.445 120.694 363.17 96.0459 307.347 86.0829C154.094 58.7401 61.9788 228.681 61.0641 230.411C59.7291 232.933 60.2977 236.073 62.4485 237.951C64.5994 239.83 67.8133 239.954 70.1372 238.322C70.8294 237.828 140.497 189.051 256.617 209.719C375.308 230.831 458.523 251.598 459.364 251.796C460.443 252.057 461.572 252.028 462.636 251.711C463.7 251.394 464.661 250.801 465.421 249.991C466.212 249.126 545.026 164.452 617.537 131.646C724.806 83.1656 797.959 115.354 798.652 115.675C799.899 116.236 801.297 116.37 802.628 116.057C803.96 115.744 805.151 115.002 806.019 113.945C806.886 112.893 807.374 111.58 807.406 110.217C807.437 108.854 807.01 107.52 806.192 106.429Z" fill="#201D22"/>
<path d="M689.354 188.631C580.453 131.077 495.31 159.137 442.256 194.07C378.596 182.03 260.943 182.722 161.313 310.437C38.1217 468.338 146.034 665.003 147.147 666.981C148.056 668.576 149.418 669.866 151.06 670.688C152.702 671.51 154.551 671.827 156.373 671.6C158.195 671.372 159.909 670.61 161.298 669.41C162.688 668.21 163.691 666.625 164.18 664.855C164.551 663.52 201.931 528.388 296.444 414.715C347.718 353.009 408.93 295.9 452.392 257.977C495.953 265.344 559.365 281.388 621.64 316.173C744.213 384.727 800.481 500.749 801.049 501.911C801.866 503.655 803.209 505.1 804.89 506.04C806.571 506.981 808.505 507.369 810.419 507.152C812.326 506.94 814.121 506.145 815.559 504.875C816.997 503.605 818.008 501.922 818.454 500.056C818.948 497.881 867.107 282.501 689.354 188.631Z" fill="#201D22"/>
</g>
<defs>
<clipPath id="clip0_519_88">
<rect width="516" height="692" fill="white"/>
</clipPath>
</defs>
</svg>
