<svg width="64" height="64" viewBox="0 0 64 64" fill="none" xmlns="http://www.w3.org/2000/svg">
<path d="M17.3333 23.92C16.7387 23.92 16.168 24.0107 15.6 24.0933C15.784 23.4747 15.9733 22.8453 16.2773 22.28C16.5813 21.4587 17.056 20.7467 17.528 20.0293C17.9227 19.2533 18.6187 18.728 19.1307 18.064C19.6667 17.4187 20.3973 16.9893 20.976 16.4533C21.544 15.8933 22.288 15.6133 22.88 15.2187C23.4987 14.864 24.0373 14.472 24.6133 14.2853L26.0507 13.6933L27.3147 13.168L26.0213 8L24.4293 8.384C23.92 8.512 23.2987 8.66133 22.592 8.84C21.8693 8.97333 21.0987 9.33867 20.24 9.672C19.392 10.0507 18.4107 10.3067 17.4987 10.9147C16.5813 11.496 15.5227 11.9813 14.5893 12.76C13.6853 13.5627 12.5947 14.2587 11.7893 15.28C10.9093 16.2347 10.04 17.2373 9.36534 18.3787C8.58401 19.4667 8.05334 20.6613 7.49334 21.8427C6.98667 23.024 6.57867 24.232 6.24534 25.4053C5.61334 27.7573 5.33067 29.992 5.22134 31.904C5.13067 33.8187 5.18401 35.4107 5.29601 36.5627C5.33601 37.1067 5.41067 37.6347 5.46401 38L5.53067 38.448L5.60001 38.432C6.0743 40.6475 7.16615 42.6835 8.74924 44.3045C10.3323 45.9254 12.342 47.065 14.5457 47.5915C16.7494 48.118 19.0572 48.0099 21.202 47.2796C23.3468 46.5493 25.2411 45.2267 26.6656 43.4647C28.0902 41.7029 28.9868 39.5737 29.2518 37.3235C29.5168 35.0733 29.1393 32.794 28.163 30.7494C27.1868 28.7048 25.6516 26.9783 23.7351 25.7697C21.8186 24.5612 19.5991 23.9198 17.3333 23.92ZM46.6667 23.92C46.072 23.92 45.5013 24.0107 44.9333 24.0933C45.1173 23.4747 45.3067 22.8453 45.6107 22.28C45.9147 21.4587 46.3893 20.7467 46.8613 20.0293C47.256 19.2533 47.952 18.728 48.464 18.064C49 17.4187 49.7307 16.9893 50.3093 16.4533C50.8773 15.8933 51.6213 15.6133 52.2133 15.2187C52.832 14.864 53.3707 14.472 53.9467 14.2853L55.384 13.6933L56.648 13.168L55.3547 8L53.7627 8.384C53.2533 8.512 52.632 8.66133 51.9253 8.84C51.2027 8.97333 50.432 9.33867 49.5733 9.672C48.728 10.0533 47.744 10.3067 46.832 10.9173C45.9147 11.4987 44.856 11.984 43.9227 12.7627C43.0187 13.5653 41.928 14.2613 41.1227 15.28C40.2427 16.2347 39.3733 17.2373 38.6987 18.3787C37.9173 19.4667 37.3867 20.6613 36.8267 21.8427C36.32 23.024 35.912 24.232 35.5787 25.4053C34.9467 27.7573 34.664 29.992 34.5547 31.904C34.464 33.8187 34.5173 35.4107 34.6293 36.5627C34.6693 37.1067 34.744 37.6347 34.7973 38L34.864 38.448L34.9333 38.432C35.4076 40.6475 36.4995 42.6835 38.0826 44.3045C39.6657 45.9254 41.6753 47.065 43.879 47.5915C46.0828 48.118 48.3905 48.0099 50.5354 47.2796C52.6802 46.5493 54.5744 45.2267 55.999 43.4647C57.4235 41.7029 58.3201 39.5737 58.5851 37.3235C58.8501 35.0733 58.4726 32.794 57.4964 30.7494C56.5201 28.7048 54.9849 26.9783 53.0684 25.7697C51.1519 24.5612 48.9324 23.9198 46.6667 23.92Z" fill="#3A0B5F"/>
</svg>
