<svg width="495" height="354" viewBox="0 0 495 354" fill="none" xmlns="http://www.w3.org/2000/svg">
<path d="M136.912 -193.172C32.3182 -193.172 -52.4711 -108.429 -52.4711 -3.94769C-52.4711 100.589 32.3182 185.333 136.912 185.333C241.507 185.333 326.296 100.589 326.296 -3.94769C326.296 -108.429 241.507 -193.172 136.912 -193.172ZM96.1775 -227.643H177.704C181.473 -227.643 184.962 -229.498 187.156 -232.591C189.294 -235.628 189.8 -239.62 188.506 -243.163L147.715 -353.492C146.027 -358.047 141.751 -361.027 136.912 -361.027C132.074 -361.027 127.798 -357.991 126.11 -353.492L85.3186 -243.107C84.0246 -239.564 84.5309 -235.628 86.6689 -232.535C88.8632 -229.442 92.4078 -227.643 96.1775 -227.643ZM324.045 -133.284C326.183 -131.091 329.165 -129.91 332.147 -129.91C332.823 -129.91 333.498 -129.966 334.173 -130.078C337.886 -130.753 340.981 -133.171 342.612 -136.601L391.899 -243.5C393.925 -247.887 392.969 -253.004 389.593 -256.434C386.161 -259.864 380.984 -260.764 376.596 -258.796L269.695 -209.479C266.263 -207.905 263.843 -204.756 263.168 -201.044C262.493 -197.333 263.731 -193.565 266.319 -190.866L324.045 -133.284ZM486.76 -14.6882L376.258 -55.4009C372.714 -56.6943 368.775 -56.1882 365.681 -54.0513C362.586 -51.9145 360.786 -48.428 360.786 -44.6604L360.842 36.8212C360.842 40.5888 362.699 44.1315 365.793 46.2684C367.762 47.5617 370.069 48.2928 372.376 48.2928C373.726 48.2928 375.077 48.0679 376.371 47.5618L486.873 6.84906C491.374 5.21832 494.412 0.888336 494.412 -4.00394C494.299 -8.72751 491.317 -13.0012 486.76 -14.6882ZM342.612 128.818C341.835 127.132 340.662 125.659 339.193 124.523C337.723 123.387 336.001 122.623 334.173 122.295C330.459 121.677 326.634 122.858 324.045 125.501L266.375 183.14C263.731 185.783 262.493 189.606 263.168 193.318C263.843 196.973 266.263 200.178 269.695 201.753L376.652 251.013C378.171 251.744 379.803 252.025 381.491 252.025C384.473 252.025 387.398 250.844 389.593 248.651C393.025 245.221 393.925 240.104 391.899 235.717L342.612 128.818ZM177.647 219.803L96.1212 219.86C92.3516 219.86 88.8632 221.715 86.7252 224.808C84.5872 227.901 84.0808 231.837 85.3186 235.324L126.11 345.765C127.798 350.264 132.074 353.301 136.912 353.301C141.751 353.301 146.027 350.264 147.715 345.765L188.506 235.324C189.8 231.781 189.294 227.845 187.156 224.752C184.962 221.659 181.473 219.803 177.647 219.803ZM-50.2206 125.501C-52.865 122.858 -56.6347 121.677 -60.3481 122.295C-64.0615 122.97 -67.2122 125.388 -68.7876 128.818L-118.075 235.717C-120.1 240.104 -119.144 245.277 -115.712 248.651C-114.051 250.315 -111.919 251.429 -109.605 251.841C-107.29 252.253 -104.904 251.945 -102.771 250.957L4.18637 201.64C5.87343 200.863 7.34779 199.691 8.4841 198.222C9.62042 196.754 10.385 195.033 10.713 193.205C11.3881 189.494 10.1503 185.726 7.50594 183.083L-50.2206 125.501ZM-98.4386 48.349C-96.1318 48.349 -93.825 47.618 -91.8557 46.2684C-88.7612 44.1315 -86.9045 40.5888 -86.9045 36.8212L-86.9608 -44.6604C-86.9605 -46.5121 -87.4075 -48.3365 -88.264 -49.9785C-89.1204 -51.6204 -90.3609 -53.0314 -91.88 -54.0914C-93.3991 -55.1514 -95.1518 -55.8291 -96.9892 -56.0669C-98.8265 -56.3047 -100.694 -56.0955 -102.433 -55.4572L-212.935 -14.6882C-215.148 -13.8774 -217.058 -12.4071 -218.407 -10.4762C-219.757 -8.54523 -220.48 -6.24677 -220.48 -3.89148C-220.48 -1.53619 -219.757 0.762299 -218.407 2.69324C-217.058 4.62418 -215.148 6.09445 -212.935 6.90527L-102.377 47.618C-101.083 48.1241 -99.7889 48.349 -98.4386 48.349ZM-68.7313 -136.601C-67.9522 -134.916 -66.7774 -133.444 -65.307 -132.31C-63.8365 -131.177 -62.1138 -130.414 -60.2854 -130.089C-58.4569 -129.763 -56.5768 -129.883 -54.8049 -130.44C-53.0331 -130.996 -51.4218 -131.971 -50.1081 -133.284L7.50594 -190.922C10.1503 -193.622 11.3319 -197.389 10.6567 -201.101C9.98154 -204.756 7.56221 -207.905 4.13013 -209.479L-102.883 -258.739C-107.272 -260.764 -112.392 -259.808 -115.824 -256.378C-119.256 -252.947 -120.156 -247.83 -118.131 -243.444L-68.7313 -136.601Z" fill="#201D22"/>
</svg>
