<svg width="88" height="88" viewBox="0 0 88 88" fill="none" xmlns="http://www.w3.org/2000/svg">
<path d="M63.3583 47.2902C67.9882 44.629 72.6058 41.9461 77.2516 39.3128C81.6612 36.8123 86.8491 39.1181 87.8491 43.9836C88.4276 46.7982 87.1719 49.8389 84.6326 51.3198C76.3077 56.1747 67.9707 61.0103 59.5921 65.7719C56.9989 67.2456 54.3276 66.9745 51.9643 65.1685C49.5636 63.335 48.807 60.8059 49.3701 57.8623C50.0129 55.6215 51.4841 54.1234 53.4906 53.0026C56.8078 51.1498 60.0717 49.1994 63.3583 47.2902Z" fill="#31F645"/>
<path d="M66.7573 45.3552C62.139 42.6734 57.509 40.0125 52.9069 37.3035C48.5382 34.7318 47.94 29.0826 51.6505 25.783C53.7969 23.8748 57.056 23.4424 59.6073 24.9027C67.9714 29.6901 76.3245 34.4979 84.6343 39.3782C87.2063 40.8887 88.307 43.3397 87.9264 46.2909C87.5397 49.2878 85.7299 51.208 82.9008 52.1922C80.64 52.7557 78.6081 52.2293 76.6349 51.0508C73.3727 49.102 70.0528 47.2486 66.7573 45.3552Z" fill="#31F645"/>
<path d="M24.6647 43.4577C21.7012 45.1426 18.736 46.8244 15.7753 48.5145C14.0438 49.5031 12.3309 50.5255 10.5905 51.4976C7.08325 53.4567 2.91631 52.3085 0.927716 48.8578C-0.970128 45.565 0.120591 41.296 3.49828 39.3228C11.7569 34.4989 20.0368 29.7101 28.3466 24.9746C30.8952 23.5225 33.5393 23.7052 35.896 25.4414C38.3834 27.2739 39.1977 29.8525 38.6392 32.8752C38.2927 33.6069 38.0857 34.4645 37.5667 35.0407C36.7231 35.9781 35.764 36.8756 34.6963 37.5347C31.3922 39.5736 28.0138 41.4924 24.6647 43.4577Z" fill="#31F645"/>
<path d="M21.2668 45.3476C24.2069 47.0731 27.1449 48.8024 30.0878 50.5231C31.8089 51.5296 33.55 52.5028 35.2615 53.5248C38.7107 55.5854 39.8008 59.7705 37.8087 63.2191C35.9078 66.5105 31.6683 67.7 28.2717 65.7588C19.9678 61.0134 11.6837 56.2325 3.43098 51.3982C0.899947 49.9156 -0.26399 47.5327 0.0601659 44.6221C0.402197 41.5498 2.22648 39.555 5.12188 38.5275C5.92798 38.4624 6.7736 38.2127 7.53192 38.3744C8.76495 38.6372 10.0214 39.0194 11.1255 39.6152C14.542 41.459 17.8915 43.4274 21.2668 45.3476Z" fill="#31F645"/>
</svg>
