<svg width="32" height="32" viewBox="0 0 32 32" fill="none" xmlns="http://www.w3.org/2000/svg">
<circle cx="16" cy="16" r="16" fill="#4C4153"/>
<g clip-path="url(#clip0_17_192)">
<path fill-rule="evenodd" clip-rule="evenodd" d="M9 16C9 17.8565 9.7375 19.637 11.0503 20.9497C12.363 22.2625 14.1435 23 16 23C17.8565 23 19.637 22.2625 20.9497 20.9497C22.2625 19.637 23 17.8565 23 16C23 14.1435 22.2625 12.363 20.9497 11.0503C19.637 9.7375 17.8565 9 16 9C14.1435 9 12.363 9.7375 11.0503 11.0503C9.7375 12.363 9 14.1435 9 16ZM21.8 16C21.8 17.5383 21.1889 19.0135 20.1012 20.1012C19.0135 21.1889 17.5383 21.8 16 21.8C14.4617 21.8 12.9865 21.1889 11.8988 20.1012C10.8111 19.0135 10.2 17.5383 10.2 16C10.2 14.4617 10.8111 12.9865 11.8988 11.8988C12.9865 10.8111 14.4617 10.2 16 10.2C17.5383 10.2 19.0135 10.8111 20.1012 11.8988C21.1889 12.9865 21.8 14.4617 21.8 16Z" fill="white"/>
<path fill-rule="evenodd" clip-rule="evenodd" d="M13 15.9999C13 19.6175 14.1928 22.5999 16 22.5999C17.8072 22.5999 19 19.6175 19 15.9999C19 12.3823 17.8072 9.3999 16 9.3999C14.1928 9.3999 13 12.3823 13 15.9999ZM17.8 15.9999C17.8 19.0095 16.844 21.3999 16 21.3999C15.156 21.3999 14.2 19.0095 14.2 15.9999C14.2 12.9903 15.156 10.5999 16 10.5999C16.844 10.5999 17.8 12.9903 17.8 15.9999Z" fill="white"/>
<path d="M10.8816 12.3735L11.6864 11.4839C11.7664 11.5559 11.8536 11.6279 11.9464 11.6975C12.9632 12.4591 14.5864 12.9295 16.3584 12.9295C17.8712 12.9295 19.28 12.5879 20.3032 12.0031C20.5496 11.8623 20.7688 11.7095 20.9584 11.5471L21.7376 12.4599C21.4772 12.6807 21.1965 12.8762 20.8992 13.0439C19.6864 13.7383 18.072 14.1287 16.3584 14.1287C14.3408 14.1287 12.4664 13.5863 11.2264 12.6575C11.1071 12.5682 10.9921 12.4734 10.8816 12.3735ZM10.8816 19.6391L11.6864 20.5287C11.7664 20.4559 11.8536 20.3847 11.9464 20.3151C12.9632 19.5535 14.5864 19.0831 16.3584 19.0831C17.8712 19.0831 19.28 19.4247 20.3032 20.0095C20.5496 20.1503 20.7688 20.3031 20.9584 20.4655L21.7376 19.5527C21.4769 19.3323 21.1962 19.1368 20.8992 18.9687C19.6864 18.2743 18.072 17.8839 16.3584 17.8839C14.3408 17.8839 12.4664 18.4263 11.2264 19.3551C11.1071 19.4444 10.9921 19.5392 10.8816 19.6391ZM9.39996 16.5999V15.3999H22.6V16.5999H9.39996Z" fill="white"/>
</g>
<defs>
<clipPath id="clip0_17_192">
<rect width="14" height="14" fill="white" transform="translate(9 9)"/>
</clipPath>
</defs>
</svg>
